<?xml version="1.0" encoding="UTF-8" standalone="no"?>
<svg
   xmlns:dc="http://purl.org/dc/elements/1.1/"
   xmlns:cc="http://creativecommons.org/ns#"
   xmlns:rdf="http://www.w3.org/1999/02/22-rdf-syntax-ns#"
   xmlns:svg="http://www.w3.org/2000/svg"
   xmlns="http://www.w3.org/2000/svg"
   xmlns:sodipodi="http://sodipodi.sourceforge.net/DTD/sodipodi-0.dtd"
   xmlns:inkscape="http://www.inkscape.org/namespaces/inkscape"
   inkscape:version="1.0 (4035a4fb49, 2020-05-01)"
   sodipodi:docname="Drive_Product_Icon.svg"
   id="svg16"
   version="1.1"
   fill="none"
   viewBox="0 0 94 94"
   height="94"
   width="94">
  <metadata
     id="metadata22">
    <rdf:RDF>
      <cc:Work
         rdf:about="">
        <dc:format>image/svg+xml</dc:format>
        <dc:type
           rdf:resource="http://purl.org/dc/dcmitype/StillImage" />
      </cc:Work>
    </rdf:RDF>
  </metadata>
  <defs
     id="defs20" />
  <sodipodi:namedview
     inkscape:current-layer="svg16"
     inkscape:window-maximized="1"
     inkscape:window-y="-8"
     inkscape:window-x="-8"
     inkscape:cy="47"
     inkscape:cx="47"
     inkscape:zoom="6.1489362"
     showgrid="false"
     id="namedview18"
     inkscape:window-height="746"
     inkscape:window-width="1366"
     inkscape:pageshadow="2"
     inkscape:pageopacity="0"
     guidetolerance="10"
     gridtolerance="10"
     objecttolerance="10"
     borderopacity="1"
     bordercolor="#666666"
     pagecolor="#ffffff" />
  <path
     id="path4"
     fill="#0066DA"
     d="M10.7219 73.2906L14.4917 79.8021C15.275 81.1729 16.401 82.25 17.7229 83.0333L31.1865 59.7292H4.25937C4.25937 61.2469 4.65104 62.7646 5.43437 64.1354L10.7219 73.2906Z" />
  <path
     id="path6"
     fill="#00AC47"
     d="M47 32.3125L33.5365 9.00833C32.2146 9.79166 31.0885 10.8687 30.3052 12.2396L5.43437 55.3229C4.65104 56.6938 4.25937 58.2115 4.25937 59.7292H31.1865L47 32.3125Z" />
  <path
     id="path8"
     fill="#00832D"
     d="M47 32.3125L60.4635 9.00833C59.1416 8.22499 57.6239 7.83333 56.0573 7.83333H37.9427C36.376 7.83333 34.8583 8.27395 33.5364 9.00833L47 32.3125Z" />
  <path
     id="path10"
     fill="#2684FC"
     d="M62.8135 59.7292H31.1864L17.7229 83.0333C19.0448 83.8167 20.5625 84.2083 22.1292 84.2083H71.8708C73.4375 84.2083 74.9552 83.7677 76.2771 83.0333L62.8135 59.7292Z" />
  <path
     id="path12"
     fill="#EA4335"
     d="M76.2771 83.0333C77.599 82.25 78.725 81.1729 79.5083 79.8021L81.075 77.1094L88.5656 64.1354C89.3489 62.7646 89.7406 61.2469 89.7406 59.7292H62.8625L76.2771 83.0333Z" />
  <path
     id="path14"
     fill="#FFBA00"
     d="M76.1302 33.7813L63.6948 12.2396C62.9115 10.8687 61.7854 9.79166 60.4635 9.00833L47 32.3125L62.8135 59.7292H89.6917C89.6917 58.2115 89.3 56.6938 88.5167 55.3229L76.1302 33.7813Z" />
</svg>
