<?xml version="1.0" encoding="UTF-8"?>
<svg width="200px" height="102px" viewBox="0 0 200 102" version="1.1" xmlns="http://www.w3.org/2000/svg" xmlns:xlink="http://www.w3.org/1999/xlink">
    <!-- Generator: Sketch 64 (93537) - https://sketch.com -->
    <title>Group 102</title>
    <desc>Created with Sketch.</desc>
    <g id="Page-1" stroke="none" stroke-width="1" fill="none" fill-rule="evenodd">
        <g id="Google_Drive_Homepage_01" transform="translate(-944.000000, -5938.000000)">
            <g id="09_Drive-integrates" transform="translate(80.000000, 5668.000000)">
                <g id="Group-27" transform="translate(0.000000, 100.000000)">
                    <g id="Group-22" transform="translate(0.000000, 170.000000)">
                        <g id="Group-71">
                            <g id="Group-70">
                                <g id="Group-102" transform="translate(864.000000, 0.000000)">
                                    <rect id="Rectangle" fill="#FFFFFF" x="0" y="0" width="200" height="102"></rect>
                                    <g id="salesforca-seeklogo.com-copy" transform="translate(60.000000, 24.000000)" fill-rule="nonzero">
                                        <path d="M42.9638128,53.1584808 C48.187329,53.1584808 52.7446604,50.2726742 55.1715552,45.988636 C57.2805752,46.9222793 59.6150381,47.4415906 62.0712402,47.4415906 C71.4925062,47.4415906 79.1305175,39.8082745 79.1305175,30.3925482 C79.1305175,20.9757051 71.4925062,13.3423889 62.0712402,13.3423889 C60.9214807,13.3423889 59.7976468,13.4563024 58.7110113,13.674078 C56.5738109,9.89706628 52.5011821,7.34518224 47.82662,7.34518224 C45.8697742,7.34518224 44.0188864,7.79301834 42.3708977,8.58929551 C40.2043897,3.54025052 35.1567194,0 29.2737826,0 C23.1473672,0 17.9261057,3.84066927 15.9219168,9.22698732 C15.0460705,9.0427156 14.1386621,8.94667096 13.2075822,8.94667096 C5.91337171,8.94667096 0,14.8657018 0,22.1684457 C0,27.0622557 2.65684657,31.3351258 6.60435471,33.621212 C5.79163245,35.4739802 5.33961911,37.5188379 5.33961911,39.6686746 C5.33961911,48.0669976 12.2212688,54.875 20.7092004,54.875 C25.6926194,54.875 30.1214485,52.5274899 32.9293419,48.890078 C35.4813574,51.5246051 39.0343401,53.1584808 42.9638128,53.1584808 Z" id="Path" fill="#0093E0" transform="translate(39.565259, 27.437500) scale(-1, 1) rotate(-180.000000) translate(-39.565259, -27.437500) "></path>
                                        <path d="M11.5125023,23.3351504 C11.4606845,23.2131691 11.5313452,23.1877121 11.5478327,23.166498 C11.7032861,23.0646702 11.8610949,22.9914814 12.0200815,22.909807 C12.8632988,22.5067384 13.659409,22.389 14.4920272,22.389 C16.1878833,22.389 17.2407273,23.2015013 17.2407273,24.5093527 L17.2407273,24.5348097 C17.2407273,25.7440154 16.0524504,26.183148 14.9371895,26.5002993 L14.7923351,26.5427276 C13.9514731,26.7888115 13.2260236,27.0009529 13.2260236,27.499485 L13.2260236,27.5260027 C13.2260236,27.9524068 13.6499876,28.266376 14.3071318,28.266376 C15.0372921,28.266376 15.9040629,28.0478704 16.4622822,27.7699653 C16.4622822,27.7699653 16.6259795,27.6745017 16.686041,27.8176971 C16.719016,27.8940679 17.0016587,28.5792845 17.0311006,28.653534 C17.0628979,28.7341477 17.0063694,28.7935473 16.9486632,28.8253685 C16.3115395,29.174341 15.4306365,29.413 14.5191138,29.413 L14.3495282,29.4119393 C12.7973488,29.4119393 11.7138852,28.5676167 11.7138852,27.3573503 L11.7138852,27.3318934 C11.7138852,26.0558632 12.9092282,25.6421875 14.0291998,25.3536753 L14.2093846,25.3038221 C15.0255153,25.0778916 15.7285889,24.8837822 15.7285889,24.3661573 L15.7285889,24.3407004 C15.7285889,23.8676252 15.2716499,23.5154705 14.5344236,23.5154705 C14.2482479,23.5154705 13.3355476,23.5207741 12.3498312,24.0818879 C12.2308858,24.1444696 12.1614028,24.19008 12.0695439,24.2399332 C12.0212591,24.2675116 11.8999583,24.3152434 11.8469628,24.1709873 L11.5125023,23.3351504 L11.5125023,23.3351504 Z" id="Path" fill="#FFFFFF" transform="translate(14.367273, 25.901000) scale(-1, 1) rotate(-180.000000) translate(-14.367273, -25.901000) "></path>
                                        <path d="M34.9422086,23.3351504 C34.8903909,23.2131691 34.9610513,23.1877121 34.9775391,23.166498 C35.1329926,23.0646702 35.2908013,22.9914814 35.4497877,22.909807 C36.293005,22.5067384 37.0891152,22.389 37.9217336,22.389 C39.6175895,22.389 40.6704336,23.2015013 40.6704336,24.5093527 L40.6704336,24.5348097 C40.6704336,25.7440154 39.4821568,26.183148 38.3668958,26.5002993 L38.2220413,26.5427276 C37.3811793,26.7888115 36.6557299,27.0009529 36.6557299,27.499485 L36.6557299,27.5260027 C36.6557299,27.9524068 37.079694,28.266376 37.7368383,28.266376 C38.4669983,28.266376 39.3337693,28.0478704 39.8919885,27.7699653 C39.8919885,27.7699653 40.0556858,27.6745017 40.1157474,27.8176971 C40.1487223,27.8940679 40.4313648,28.5792845 40.4608068,28.653534 C40.4926041,28.7341477 40.4360758,28.7935473 40.3783695,28.8253685 C39.7412456,29.174341 38.8603428,29.413 37.94882,29.413 L37.7792344,29.4119393 C36.2270551,29.4119393 35.1435914,28.5676167 35.1435914,27.3573503 L35.1435914,27.3318934 C35.1435914,26.0558632 36.3389344,25.6421875 37.458906,25.3536753 L37.6390908,25.3038221 C38.4552214,25.0778916 39.1594728,24.8837822 39.1594728,24.3661573 L39.1594728,24.3407004 C39.1594728,23.8676252 38.7013564,23.5154705 37.9641298,23.5154705 C37.6779543,23.5154705 36.7652539,23.5207741 35.7795376,24.0818879 C35.6605921,24.1444696 35.5899313,24.1879586 35.500428,24.2399332 C35.4698084,24.2579653 35.3261315,24.3078185 35.2766691,24.1709873 L34.9422086,23.3351504 L34.9422086,23.3351504 Z" id="Path" fill="#FFFFFF" transform="translate(37.796979, 25.901000) scale(-1, 1) rotate(-180.000000) translate(-37.796979, -25.901000) "></path>
                                        <path d="M51.4908688,25.8945951 C51.4908688,25.1505635 51.3440393,24.5645186 51.0548979,24.1503374 C50.7691451,23.7404261 50.3365625,23.5408079 49.7334319,23.5408079 C49.1291718,23.5408079 48.6988483,23.7393587 48.417613,24.1503374 C48.1329896,24.5634511 47.988419,25.1505635 47.988419,25.8945951 C47.988419,26.6375593 48.1329896,27.2225368 48.417613,27.632448 C48.6988483,28.0380894 49.1291718,28.2355726 49.7334319,28.2355726 C50.3365625,28.2355726 50.7691451,28.0380894 51.0560273,27.632448 C51.3440393,27.2225368 51.4908688,26.6375593 51.4908688,25.8945951 M52.8484774,27.2737757 C52.7152014,27.6996991 52.5073811,28.0754511 52.2306638,28.3882219 C51.9539465,28.7020602 51.6038144,28.9539848 51.1881739,29.1375909 C50.7736629,29.3201295 50.2834778,29.413 49.7334319,29.413 C49.1822564,29.413 48.6920714,29.3201295 48.2775603,29.1375909 C47.8619198,28.9539848 47.5117878,28.7020602 47.233941,28.3882219 C46.9583532,28.0743836 46.7505329,27.6986316 46.6161274,27.2737757 C46.4839808,26.8499872 46.4173427,26.3867021 46.4173427,25.8945951 C46.4173427,25.4024881 46.4839808,24.9381356 46.6161274,24.5154146 C46.7505329,24.0905587 46.9572237,23.7148067 47.2350705,23.4009684 C47.5117878,23.0871301 47.8630493,22.8362729 48.2775603,22.6580043 C48.6932008,22.4797356 49.1822564,22.389 49.7334319,22.389 C50.2834778,22.389 50.7725334,22.4797356 51.1881739,22.6580043 C51.602685,22.8362729 51.9539465,23.0871301 52.2306638,23.4009684 C52.5073811,23.7137392 52.7152014,24.0894912 52.8484774,24.5154146 C52.9817534,24.939203 53.0483916,25.4035556 53.0483916,25.8945951 C53.0483916,26.3856347 52.9817534,26.8499872 52.8484774,27.2737757" id="Shape" fill="#FFFFFF" transform="translate(49.732867, 25.901000) scale(-1, 1) rotate(-180.000000) translate(-49.732867, -25.901000) "></path>
                                        <path d="M63.745319,23.7355423 C63.698725,23.8603802 63.567097,23.8134326 63.567097,23.8134326 C63.3632484,23.7419443 63.1465865,23.6757908 62.9159464,23.6427141 C62.6818115,23.6096374 62.4243798,23.5925655 62.1483105,23.5925655 C61.470368,23.5925655 60.9322077,23.7771549 60.5466424,24.1420658 C60.1599125,24.5069766 59.9432503,25.0970225 59.9455803,25.8951316 C59.9479099,26.6217522 60.138945,27.1680515 60.4825757,27.5841779 C60.8238765,27.9981703 61.3433996,28.2105015 62.0364848,28.2105015 C62.6142504,28.2105015 63.0545635,28.149683 63.5158437,28.0163091 C63.5158437,28.0163091 63.6265043,27.9725625 63.6789227,28.1048693 C63.8012319,28.4164307 63.8920901,28.6394317 64.0225534,28.9819357 C64.0598284,29.0790319 63.9689702,29.1206445 63.9363544,29.1323814 C63.7546379,29.1974679 63.3259734,29.3031 63.0021451,29.3479136 C62.6992842,29.3905932 62.3451701,29.413 61.9514509,29.413 C61.3632019,29.413 60.8390195,29.3212388 60.3905527,29.1377164 C59.9432503,28.955261 59.5635094,28.7034512 59.2629782,28.3897559 C58.9624473,28.0760606 58.7341368,27.7004799 58.5815416,27.2758175 C58.4301111,26.8522222 58.3532308,26.3870143 58.3532308,25.8951316 C58.3532308,24.8313418 58.6665754,23.9713473 59.2851105,23.3418227 C59.9048105,22.7101642 60.835525,22.389 62.0492982,22.389 C62.7668456,22.389 63.5030303,22.5223738 64.031872,22.7133652 C64.031872,22.7133652 64.133214,22.7581788 64.0889497,22.8659448 L63.745319,23.7355423 L63.745319,23.7355423 Z" id="Path" fill="#FFFFFF" transform="translate(61.226685, 25.901000) scale(-1, 1) rotate(-180.000000) translate(-61.226685, -25.901000) "></path>
                                        <path d="M66.1056848,26.6081038 C66.1683557,27.0211536 66.2860011,27.3648281 66.467417,27.6327234 C66.7411901,28.0393693 67.1589963,28.2624376 67.7461244,28.2624376 C68.3332522,28.2624376 68.7213722,28.038302 68.9995431,27.6327234 C69.1842575,27.3648281 69.2645204,27.0062112 69.2964055,26.6081038 L66.1056848,26.6081038 L66.1056848,26.6081038 Z M70.5553218,27.5163864 C70.4431738,27.9273016 70.1650029,28.342486 69.9824874,28.5324675 C69.694421,28.8334495 69.4129514,29.04371 69.1336811,29.1611144 C68.7686502,29.3126727 68.3310529,29.413 67.8516753,29.413 C67.2931343,29.413 66.7862691,29.3222785 66.37506,29.1344316 C65.9627511,28.9465846 65.6164117,28.6904297 65.3448376,28.3713034 C65.0732635,28.0532444 64.8687581,27.6743486 64.7390183,27.2442219 C64.608179,26.8162297 64.5422098,26.3498143 64.5422098,25.8577834 C64.5422098,25.3572141 64.610378,24.8907987 64.7456154,24.471345 C64.8819521,24.0486894 65.0996514,23.6761975 65.3943146,23.3677443 C65.6878786,23.0571565 66.0661031,22.8138093 66.5190932,22.6441067 C66.9687846,22.4754714 67.5152312,22.3879518 68.1430401,22.3890095 C69.4349414,22.3932884 70.1155257,22.6729242 70.3958958,22.8234151 C70.4453727,22.8500979 70.492651,22.8970597 70.4332783,23.031541 L70.140814,23.8266885 C70.0968344,23.9451602 69.9725919,23.9014004 69.9725919,23.9014004 C69.6526404,23.7861306 69.1974514,23.5790721 68.1364433,23.5812067 C67.4426648,23.582274 66.9281034,23.7807941 66.6059529,24.0913819 C66.2750064,24.4094409 66.1133811,24.8769236 66.0847944,25.5365225 L70.5586202,25.5322532 C70.5586202,25.5322532 70.6762656,25.5343879 70.6883601,25.6453883 C70.6927582,25.6923501 70.8422888,26.5376612 70.5553218,27.5163864 L70.5553218,27.5163864 Z" id="Shape" fill="#FFFFFF" transform="translate(67.636699, 25.901000) scale(-1, 1) rotate(-180.000000) translate(-67.636699, -25.901000) "></path>
                                        <path d="M29.4139183,26.6081038 C29.4776902,27.0211536 29.594239,27.3648281 29.7756593,27.6327234 C30.0494389,28.0393693 30.4672552,28.2624376 31.0543972,28.2624376 C31.6415391,28.2624376 32.0296684,28.038302 32.3089455,27.6327234 C32.4925648,27.3648281 32.5728296,27.0062112 32.6047156,26.6081038 L29.4139183,26.6081038 L29.4139183,26.6081038 Z M33.8625626,27.5163864 C33.7504119,27.9273016 33.4733338,28.342486 33.290814,28.5324675 C33.0027406,28.8334495 32.7212643,29.04371 32.4419872,29.1611144 C32.0769475,29.3126727 31.6393401,29.413 31.1599507,29.413 C30.6024958,29.413 30.0945191,29.3222785 29.6832998,29.1344316 C29.2709811,28.9465846 28.9246334,28.6904297 28.6530527,28.3713034 C28.3814721,28.0532444 28.176962,27.6743486 28.0472191,27.2442219 C27.9174761,26.8162297 27.8504056,26.3498143 27.8504056,25.8577834 C27.8504056,25.3572141 27.9185756,24.8907987 28.0538162,24.471345 C28.1901562,24.0486894 28.4078605,23.6761975 28.702531,23.3677443 C28.996102,23.0571565 29.3743357,22.8138093 29.8273365,22.6441067 C30.2770388,22.4754714 30.8234987,22.3879518 31.4513228,22.3890095 C32.7432548,22.3932884 33.4238554,22.6729242 33.7042323,22.8234151 C33.7537104,22.8500979 33.8009898,22.8970597 33.7416159,23.031541 L33.4502438,23.8266885 C33.4051637,23.9451602 33.2809182,23.9014004 33.2809182,23.9014004 C32.960959,23.7861306 32.5068585,23.5790721 31.443626,23.5812067 C30.7509307,23.582274 30.2363567,23.7807941 29.9141984,24.0913819 C29.5832438,24.4094409 29.4216149,24.8769236 29.3930274,25.5365225 L33.8669606,25.5322532 C33.8669606,25.5322532 33.9846091,25.5343879 33.9967036,25.6453883 C34.0011018,25.6923501 34.150636,26.5376612 33.8625626,27.5163864 L33.8625626,27.5163864 Z" id="Shape" fill="#FFFFFF" transform="translate(30.944895, 25.901000) scale(-1, 1) rotate(-180.000000) translate(-30.944895, -25.901000) "></path>
                                        <path d="M19.6528172,23.7624495 C19.4658123,23.8978751 19.4399374,23.931998 19.3764263,24.0194381 C19.2823358,24.152731 19.2341144,24.34254 19.2341144,24.5835335 C19.2341144,24.9652842 19.3728979,25.2393343 19.6610501,25.4238116 C19.6575217,25.4227453 20.0726961,25.7490462 21.0488851,25.7373164 C21.7345696,25.7287856 22.347334,25.6370802 22.347334,25.6370802 L22.347334,23.664346 L22.3485102,23.664346 C22.3485102,23.664346 21.7404503,23.5459819 21.0559418,23.5086599 C20.0821051,23.4553428 19.6492888,23.7635159 19.6528172,23.7624495 M21.5569738,26.8111236 C21.3629121,26.8239197 21.11122,26.8313841 20.8101304,26.8313841 C20.3996606,26.8313841 20.0033043,26.784465 19.6316468,26.6938259 C19.257637,26.6031867 18.9212635,26.4613631 18.6319352,26.2736868 C18.3414307,26.0849441 18.1073806,25.8439506 17.9380177,25.5581708 C17.7686548,25.2723909 17.6827972,24.9354266 17.6827972,24.5579412 C17.6827972,24.1740579 17.7557174,23.8402925 17.9015576,23.5673088 C18.0473979,23.2932587 18.2579254,23.0650613 18.5260834,22.8891148 C18.7918891,22.7131682 19.1200297,22.5841407 19.5010962,22.5062977 C19.8762821,22.4284547 20.3020417,22.389 20.7677897,22.389 C21.2582365,22.389 21.7475071,22.4252557 22.221488,22.4988333 C22.6907644,22.5713446 23.2670687,22.6769126 23.4270226,22.7099692 C23.5858003,22.7440922 23.76222,22.7878122 23.76222,22.7878122 C23.8810093,22.8144708 23.8716003,22.9296358 23.8716003,22.9296358 L23.869248,26.8974973 C23.869248,27.7676331 23.6128513,28.4127705 23.108291,28.812649 C22.6060829,29.2114612 21.8662963,29.413 20.9101016,29.413 C20.5513815,29.413 19.973901,29.3682136 19.6281184,29.3052994 C19.6281184,29.3052994 18.5825377,29.1218884 18.1520736,28.8169144 C18.1520736,28.8169144 18.0579831,28.7635972 18.1097329,28.6441668 L18.4484587,27.8188175 C18.4907994,27.7121832 18.6048842,27.7484389 18.6048842,27.7484389 C18.6048842,27.7484389 18.6413442,27.761235 18.683685,27.7836282 C19.6045958,28.2378902 20.7689658,28.2240278 20.7689658,28.2240278 C21.2864636,28.2240278 21.683996,28.1301896 21.9521539,27.9435796 C22.2132551,27.7623013 22.3461579,27.4882513 22.3461579,26.9102935 L22.3461579,26.7268825 C21.934512,26.7801996 21.5569738,26.8111236 21.5569738,26.8111236" id="Shape" fill="#FFFFFF" transform="translate(20.777287, 25.901000) scale(-1, 1) rotate(-180.000000) translate(-20.777287, -25.901000) "></path>
                                        <path d="M58.343607,29.1164415 C58.3800041,29.2177219 58.303688,29.2661603 58.2719874,29.2771691 C58.1909746,29.3068927 57.7847379,29.3872565 57.4712543,29.4059713 C56.8712917,29.4400984 56.5378486,29.3454233 56.2396286,29.2199236 C55.9437564,29.094424 55.6150099,28.8918631 55.431851,28.6617805 L55.431851,29.2067131 C55.431851,29.2826734 55.3743203,29.3432215 55.2944819,29.3432215 L54.0699006,29.3432215 C53.9900619,29.3432215 53.9325315,29.2826734 53.9325315,29.2067131 L53.9325315,22.5255084 C53.9325315,22.4506489 53.9982807,22.389 54.0781191,22.389 L55.3332269,22.389 C55.4130656,22.389 55.4776407,22.4506489 55.4776407,22.5255084 L55.4776407,25.8633586 C55.4776407,26.3114143 55.5304749,26.7583692 55.6361435,27.0390921 C55.7394639,27.3165123 55.8803553,27.5388889 56.0541216,27.6985157 C56.2290616,27.8570415 56.4274837,27.9682298 56.6446913,28.0309796 C56.8665954,28.0948303 57.1119813,28.1157469 57.2857473,28.1157469 C57.5358298,28.1157469 57.810568,28.0551989 57.810568,28.0551989 C57.9021475,28.045291 57.9538075,28.0981329 57.984334,28.176295 C58.0665206,28.3810576 58.2989917,28.9942444 58.343607,29.1164415" id="Path" fill="#FFFFFF" transform="translate(56.142881, 25.901000) scale(-1, 1) rotate(-180.000000) translate(-56.142881, -25.901000) "></path>
                                        <path d="M47.2090674,32.3342667 C47.0634475,32.3782473 46.9312695,32.4079342 46.7587659,32.4398201 C46.584022,32.4706068 46.3756736,32.486 46.1393214,32.486 C45.3148887,32.486 44.6651999,32.2573007 44.2092977,31.8064991 C43.7556358,31.3578968 43.4475938,30.6750974 43.2930125,29.776793 L43.2370048,29.4744262 L42.2019835,29.4744262 C42.2019835,29.4744262 42.0765266,29.4788243 42.0496428,29.3446834 L41.8804996,28.4133935 C41.8681782,28.3254322 41.9073833,28.2693569 42.0283601,28.2693569 L43.0353776,28.2693569 L42.0137981,22.6706226 C41.9342671,22.2198212 41.8424146,21.8492843 41.7404807,21.5678083 C41.640787,21.2907303 41.5433336,21.0829219 41.4223572,20.9311887 C41.3058613,20.7860526 41.1960861,20.6783001 41.0056602,20.6156277 C40.848839,20.5639504 40.667374,20.5397611 40.4691071,20.5397611 C40.359332,20.5397611 40.212592,20.5573533 40.103937,20.5793436 C39.9964024,20.6002344 39.9392746,20.6233243 39.8575036,20.6574092 C39.8575036,20.6574092 39.7398876,20.7013899 39.6928409,20.5859407 C39.655876,20.4902828 39.3870392,19.765702 39.3545548,19.6766412 C39.3231905,19.5875804 39.3679966,19.5183109 39.4251245,19.4974201 C39.5595428,19.4512405 39.6592364,19.420454 39.8418215,19.3775729 C40.094976,19.3192986 40.3089253,19.316 40.5094324,19.316 C40.9283697,19.316 41.3114619,19.3742743 41.6284653,19.4864249 C41.9465888,19.5996751 42.2243867,19.7964884 42.4708204,20.0625712 C42.7362966,20.3506444 42.9031995,20.6519117 43.062261,21.0642301 C43.2202026,21.4710509 43.3557413,21.9768282 43.4632759,22.5661686 L44.490456,28.2693569 L45.991461,28.2693569 C45.991461,28.2693569 46.1180384,28.2649589 46.1438019,28.4001993 L46.3140653,29.3303896 C46.3252666,29.4194504 46.2871816,29.4744262 46.1650847,29.4744262 L44.7077657,29.4744262 C44.7156069,29.5063122 44.7816958,30.0098904 44.9485987,30.4837817 C45.0202886,30.6849931 45.1547068,30.8488209 45.2678424,30.9609715 C45.3798578,31.0709232 45.5086751,31.1489887 45.6498145,31.1940688 C45.7943142,31.2402487 45.9589766,31.2622388 46.1393214,31.2622388 C46.27598,31.2622388 46.4115184,31.2468456 46.5134523,31.225955 C46.6545917,31.196268 46.7094793,31.1808745 46.7464441,31.1698796 C46.8954247,31.125899 46.9155874,31.1687801 46.9447113,31.2391492 L47.2930789,32.1781354 C47.3289237,32.2792909 47.2404316,32.322172 47.2090674,32.3342667" id="Path" fill="#FFFFFF" transform="translate(43.322853, 25.901000) scale(-1, 1) rotate(-180.000000) translate(-43.322853, -25.901000) "></path>
                                        <path d="M26.9662657,19.455074 C26.9662657,19.3781876 26.9002248,19.316 26.8085762,19.316 L25.3543278,19.316 C25.2626791,19.316 25.197986,19.3781876 25.197986,19.455074 L25.197986,29.273926 C25.197986,29.3508124 25.2626791,29.413 25.3543278,29.413 L26.8085762,29.413 C26.9002248,29.413 26.9662657,29.3508124 26.9662657,29.273926 L26.9662657,19.455074 L26.9662657,19.455074 Z" id="Path" fill="#FFFFFF" transform="translate(26.082126, 24.364500) scale(-1, 1) rotate(-180.000000) translate(-26.082126, -24.364500) "></path>
                                    </g>
                                </g>
                            </g>
                        </g>
                    </g>
                </g>
            </g>
        </g>
    </g>
</svg>